<svg version="1.1" id="Layer_1" xmlns="http://www.w3.org/2000/svg" xmlns:xlink="http://www.w3.org/1999/xlink" x="0px" y="0px"
	 width="100%" viewBox="0 0 212 200" enable-background="new 0 0 212 200" xml:space="preserve">
<path fill="none" opacity="1.000000" stroke="none" 
	d="
M213.000000,76.000000 
	C213.000000,118.000000 213.000000,159.500000 213.000000,201.000000 
	C142.333328,201.000000 71.666664,201.000000 1.000000,201.000000 
	C1.000000,134.333328 1.000000,67.666664 1.000000,1.000000 
	C71.666664,1.000000 142.333328,1.000000 213.000000,1.000000 
	C213.000000,25.833334 213.000000,50.666668 213.000000,76.000000 
M163.823853,85.905266 
	C160.771194,86.879082 157.718552,87.852898 154.147736,88.860054 
	C153.723160,89.122475 153.298599,89.384888 152.177399,89.891205 
	C148.641220,92.653641 148.181854,96.125473 149.903259,100.045723 
	C151.091797,102.752403 152.367310,105.420883 153.838150,108.835609 
	C155.604721,114.185402 157.321198,119.552406 159.151840,124.880180 
	C161.013214,130.297348 163.665680,131.781067 169.000778,129.998291 
	C177.811111,127.054276 186.629532,124.088104 195.239441,120.621880 
	C197.500015,119.711815 199.006287,116.928085 201.075546,114.266068 
	C201.017120,113.511986 200.958710,112.757904 200.918549,111.270264 
	C199.996231,108.835602 199.073898,106.400940 198.065002,103.227455 
	C197.036301,100.822586 196.007599,98.417717 194.910522,95.259911 
	C193.590729,91.337387 192.377731,87.374771 190.923706,83.502647 
	C189.164398,78.817482 186.239975,77.346596 181.588425,79.041313 
	C175.850357,81.131882 170.231995,83.551003 163.823853,85.905266 
M188.653229,146.394501 
	C187.749802,146.592499 186.846390,146.790497 185.486740,147.031998 
	C185.163422,147.134796 184.967392,147.352310 184.226852,147.908081 
	C181.159195,149.647018 178.091522,151.385941 175.006119,152.396973 
	C174.994797,151.911804 174.983490,151.426620 175.295670,150.329803 
	C176.806595,148.681305 178.317535,147.032806 180.101532,145.086365 
	C171.126831,139.281082 161.567993,137.407913 151.872620,136.097382 
	C139.094177,134.370148 127.099022,131.184616 118.824181,119.261681 
	C117.505463,114.513641 116.186752,109.765602 115.038651,104.276398 
	C115.008827,103.520050 114.979004,102.763695 115.191467,101.266083 
	C115.805649,98.506783 116.419830,95.747475 117.760025,92.923897 
	C121.137154,90.687004 125.295753,89.060043 127.659126,86.031929 
	C129.781219,83.312981 131.755585,81.670723 134.993713,80.962448 
	C144.224594,78.943375 150.493561,73.297623 152.895111,64.251869 
	C154.098633,59.718636 153.670334,54.752178 154.282959,49.437065 
	C155.186340,48.576599 156.089722,47.716133 157.619598,46.658337 
	C159.453217,44.171772 161.286850,41.685204 163.715332,38.742638 
	C171.551086,22.973387 158.711243,7.448915 143.535629,10.226238 
	C138.497116,11.148346 133.800354,13.937714 128.190964,15.957073 
	C121.447464,17.605978 114.703972,19.254885 107.030968,20.819939 
	C96.018547,21.938833 85.006126,23.057728 73.242615,24.134399 
	C65.432953,27.734144 57.623295,31.333891 49.174175,35.105522 
	C47.070011,36.718906 44.965847,38.332294 42.229023,40.144695 
	C39.843365,42.437405 37.457706,44.730110 34.447357,47.277649 
	C31.949480,50.489140 29.451605,53.700634 26.363722,57.264011 
	C23.531553,62.825344 20.699387,68.386681 17.318012,74.429039 
	C11.531145,91.167839 11.424548,108.031349 16.213804,125.729691 
	C26.615414,156.378738 48.285572,175.185013 78.691689,184.351685 
	C91.116379,188.097397 103.926460,190.203354 117.924515,188.175323 
	C131.799591,187.429276 144.867584,183.795059 157.829849,177.121872 
	C169.505493,171.399841 179.592865,163.739929 186.874298,152.813644 
	C187.965698,151.175919 188.179199,148.953171 188.653229,146.394501 
z"/>
<path fill="#F93D28" opacity="1.000000" stroke="none" 
	d="
M117.031517,188.076706 
	C103.926460,190.203354 91.116379,188.097397 78.691689,184.351685 
	C48.285572,175.185013 26.615414,156.378738 16.546684,125.412239 
	C19.628550,126.936142 22.358856,128.806122 25.129656,130.614044 
	C39.287334,139.851776 53.433193,149.108200 67.662125,158.235031 
	C68.802826,158.966705 70.541237,158.766525 72.320366,159.025406 
	C73.423576,159.370392 74.208321,159.689346 75.049438,160.356964 
	C76.890022,161.800415 78.604408,163.035309 80.470718,163.965347 
	C87.861343,167.648300 95.683517,170.634811 102.596741,175.051773 
	C107.983391,178.493362 112.261024,183.670731 117.031517,188.076706 
z"/>
<path fill="#FB4621" opacity="1.000000" stroke="none" 
	d="
M72.001892,158.999390 
	C70.541237,158.766525 68.802826,158.966705 67.662125,158.235031 
	C53.433193,149.108200 39.287334,139.851776 25.129656,130.614044 
	C22.358856,128.806122 19.628550,126.936142 16.543629,125.048500 
	C11.424548,108.031349 11.531145,91.167839 17.985138,74.241737 
	C20.864092,74.684692 23.069216,75.339691 25.288883,75.941002 
	C35.884190,78.811295 46.468246,81.725433 57.091434,84.488930 
	C59.931385,85.227699 62.941345,85.322372 65.767212,86.098724 
	C66.411011,86.275589 66.614914,88.053688 66.742287,89.335472 
	C58.136570,91.495735 49.809853,93.415329 41.113831,95.296570 
	C37.935402,95.527199 35.130985,95.928192 32.315849,96.028610 
	C29.414188,96.132118 27.778032,96.933205 28.900349,100.233665 
	C30.229307,104.141808 31.469114,108.080254 32.527977,112.286804 
	C33.200256,116.045753 34.092129,119.523483 34.738083,123.206238 
	C34.619923,124.180054 34.607407,125.006660 34.896790,125.708847 
	C38.435787,134.296280 45.084091,140.376678 52.106964,145.896591 
	C56.281666,149.177841 61.336720,151.339020 66.293228,154.027588 
	C67.058266,154.370514 67.526047,154.689606 68.040909,155.337158 
	C69.392616,156.776871 70.697258,157.888123 72.001892,158.999390 
z"/>
<path fill="#FC5720" opacity="1.000000" stroke="none" 
	d="
M67.021286,89.094803 
	C66.614914,88.053688 66.411011,86.275589 65.767212,86.098724 
	C62.941345,85.322372 59.931385,85.227699 57.091434,84.488930 
	C46.468246,81.725433 35.884190,78.811295 25.288883,75.941002 
	C23.069216,75.339691 20.864092,74.684692 18.259743,74.001221 
	C20.699387,68.386681 23.531553,62.825344 26.939220,57.393608 
	C32.566677,58.270893 37.733624,58.576462 42.647629,59.854546 
	C54.351593,62.898632 65.833183,66.843056 77.599518,69.588387 
	C88.038239,72.023956 98.739571,73.333954 109.067642,75.403122 
	C94.880623,80.141899 80.950958,84.618347 67.021286,89.094803 
z"/>
<path fill="#CB2B31" opacity="1.000000" stroke="none" 
	d="
M117.034012,92.988174 
	C116.419830,95.747475 115.805649,98.506783 114.773300,101.788368 
	C112.159676,104.058189 110.001938,105.855736 107.762558,107.545059 
	C94.548836,117.513054 92.368988,129.582397 101.673546,143.299606 
	C105.449692,148.866577 109.825996,154.026459 113.523178,159.434113 
	C109.259003,160.314560 105.400848,161.132477 101.168823,161.931183 
	C92.859528,159.297806 84.924118,156.683624 76.995804,153.594696 
	C75.736183,138.685776 78.278214,125.234200 86.858025,113.183990 
	C89.202248,109.891563 90.912590,106.147820 93.185516,102.413216 
	C96.272232,100.341393 99.113838,98.505928 101.893623,96.581169 
	C103.998367,95.123817 106.024216,93.552521 108.504166,92.045624 
	C111.626770,92.368927 114.330391,92.678551 117.034012,92.988174 
z"/>
<path fill="#E6E6E6" opacity="1.000000" stroke="none" 
	d="
M117.397018,92.956032 
	C114.330391,92.678551 111.626770,92.368927 108.125534,92.001381 
	C104.652000,92.251190 101.775032,92.034248 99.338875,92.967735 
	C92.752754,95.491364 86.354095,98.504227 79.536301,101.199898 
	C78.342583,100.674759 77.493637,100.272743 76.518684,99.811050 
	C73.680923,108.623741 66.917496,110.436142 58.657948,110.170120 
	C57.212837,109.703560 56.111847,109.329994 55.049232,108.615547 
	C61.285748,103.497986 66.894295,97.479530 73.802963,94.199364 
	C88.862442,87.049263 104.737816,81.633850 119.940598,74.759453 
	C124.486023,72.704102 127.907104,68.162254 131.884064,64.800476 
	C131.924820,64.841339 131.809509,64.836090 132.077744,64.805450 
	C132.571823,64.508171 132.797668,64.241531 133.235962,63.729698 
	C135.065338,62.357967 136.682266,61.231419 138.635437,60.050068 
	C143.310196,56.923943 147.648743,53.852619 152.252197,50.722374 
	C153.004745,50.436188 153.492401,50.208920 153.980057,49.981651 
	C153.670334,54.752178 154.098633,59.718636 152.895111,64.251869 
	C150.493561,73.297623 144.224594,78.943375 134.993713,80.962448 
	C131.755585,81.670723 129.781219,83.312981 127.659126,86.031929 
	C125.295753,89.060043 121.137154,90.687004 117.397018,92.956032 
z"/>
<path fill="#FD9417" opacity="1.000000" stroke="none" 
	d="
M151.987289,50.781296 
	C147.648743,53.852619 143.310196,56.923943 138.205933,60.013985 
	C119.789169,57.160248 102.884605,52.107723 87.271873,43.142021 
	C75.671463,36.480419 63.510777,32.139660 49.813633,34.933636 
	C57.623295,31.333891 65.432953,27.734144 73.695541,24.498638 
	C78.980988,26.855043 83.967964,28.541790 88.618561,30.893703 
	C106.165833,39.767754 124.605247,45.588821 144.118958,48.119377 
	C146.811523,48.468552 149.367874,49.868053 151.987289,50.781296 
z"/>
<path fill="#FCA017" opacity="1.000000" stroke="none" 
	d="
M152.252197,50.722378 
	C149.367874,49.868053 146.811523,48.468552 144.118958,48.119377 
	C124.605247,45.588821 106.165833,39.767754 88.618561,30.893703 
	C83.967964,28.541790 78.980988,26.855043 74.071083,24.519751 
	C85.006126,23.057728 96.018547,21.938833 107.691681,21.151237 
	C123.094147,28.747606 137.853668,35.977108 152.552933,43.327168 
	C154.207443,44.154465 155.521271,45.663021 156.993088,46.855659 
	C156.089722,47.716133 155.186340,48.576599 154.131500,49.709358 
	C153.492401,50.208920 153.004745,50.436188 152.252197,50.722378 
z"/>
<path fill="#F93C27" opacity="1.000000" stroke="none" 
	d="
M114.868042,105.017563 
	C116.186752,109.765602 117.505463,114.513641 118.912338,120.013023 
	C119.988098,129.061996 124.487045,135.277634 131.057419,139.945358 
	C136.855881,144.064682 143.058838,147.610764 148.983704,151.559204 
	C150.227753,152.388245 151.037872,153.868423 151.948395,155.377686 
	C150.785141,156.194794 149.351273,157.393280 148.714569,157.061600 
	C141.812469,153.466064 135.018829,154.465012 127.855927,156.959518 
	C123.847656,154.301636 119.929588,152.069748 116.531464,149.218246 
	C100.750687,135.975967 99.629288,119.155739 114.868042,105.017563 
z"/>
<path fill="#FC6E1A" opacity="1.000000" stroke="none" 
	d="
M109.324982,75.140808 
	C98.739571,73.333954 88.038239,72.023956 77.599518,69.588387 
	C65.833183,66.843056 54.351593,62.898632 42.647629,59.854546 
	C37.733624,58.576462 32.566677,58.270893 27.234224,57.217667 
	C29.451605,53.700634 31.949480,50.489140 35.216515,47.144691 
	C43.225311,46.571781 50.164249,47.541573 56.793743,50.759590 
	C60.957897,52.780914 65.288895,54.530643 69.679604,56.000126 
	C85.372055,61.252083 101.121986,66.332275 116.534851,71.677689 
	C113.921349,72.965553 111.623161,74.053177 109.324982,75.140808 
z"/>
<path fill="#FC5620" opacity="1.000000" stroke="none" 
	d="
M153.603943,108.106438 
	C152.367310,105.420883 151.091797,102.752403 149.903259,100.045723 
	C148.181854,96.125473 148.641220,92.653641 152.579865,90.143272 
	C153.812973,91.350487 154.477890,92.568367 155.503113,93.215111 
	C159.835861,95.948402 164.015823,99.188560 168.729523,100.999466 
	C179.301926,105.061134 190.159073,108.381584 200.900284,112.003822 
	C200.958710,112.757904 201.017120,113.511986 200.613770,114.678207 
	C196.505951,116.695358 192.935516,118.508827 189.198807,119.863785 
	C180.271225,123.100990 171.190277,126.745544 162.741364,118.809738 
	C160.604843,116.802979 158.927704,114.309021 157.022873,112.052971 
	C155.900101,110.723206 154.744690,109.421021 153.603943,108.106438 
z"/>
<path fill="#FC7B1A" opacity="1.000000" stroke="none" 
	d="
M116.850174,71.477448 
	C101.121986,66.332275 85.372055,61.252083 69.679604,56.000126 
	C65.288895,54.530643 60.957897,52.780914 56.793743,50.759590 
	C50.164249,47.541573 43.225311,46.571781 35.528862,47.017273 
	C37.457706,44.730110 39.843365,42.437405 43.008186,40.062145 
	C54.704865,40.053349 65.015480,42.334560 74.852936,47.332005 
	C88.299660,54.162975 102.079613,60.266846 116.943161,63.513130 
	C120.390602,64.266068 123.744705,65.446312 126.891655,66.648865 
	C123.377754,68.404350 120.113968,69.940903 116.850174,71.477448 
z"/>
<path fill="#FD8718" opacity="1.000000" stroke="none" 
	d="
M127.141762,66.429932 
	C123.744705,65.446312 120.390602,64.266068 116.943161,63.513130 
	C102.079613,60.266846 88.299660,54.162975 74.852936,47.332005 
	C65.015480,42.334560 54.704865,40.053349 43.324516,39.962639 
	C44.965847,38.332294 47.070011,36.718906 49.493904,35.019577 
	C63.510777,32.139660 75.671463,36.480419 87.271873,43.142021 
	C102.884605,52.107723 119.789169,57.160248 137.869720,60.068787 
	C136.682266,61.231419 135.065338,62.357967 132.966171,63.770718 
	C132.259140,64.316650 132.034332,64.576370 131.809509,64.836090 
	C131.809509,64.836090 131.924820,64.841339 131.528168,64.827675 
	C129.801590,65.352654 128.471680,65.891296 127.141762,66.429932 
z"/>
<path fill="#FB4621" opacity="1.000000" stroke="none" 
	d="
M117.478012,188.126007 
	C112.261024,183.670731 107.983391,178.493362 102.596741,175.051773 
	C95.683517,170.634811 87.861343,167.648300 80.470718,163.965347 
	C78.604408,163.035309 76.890022,161.800415 75.310440,160.347534 
	C75.688751,159.978348 75.862450,159.967239 76.325638,160.086548 
	C77.409019,160.462784 78.202919,160.708603 79.161865,161.210785 
	C79.897194,161.629974 80.467476,161.792801 81.437195,161.963470 
	C83.884911,162.324280 85.933197,162.677261 88.053757,163.388489 
	C89.711159,164.495071 91.231224,165.675476 92.891388,165.925461 
	C111.322403,168.700714 129.788361,171.246048 148.208862,174.086929 
	C151.266083,174.558456 154.150589,176.150024 157.114914,177.223999 
	C144.867584,183.795059 131.799591,187.429276 117.478012,188.126007 
z"/>
<path fill="#FC5822" opacity="1.000000" stroke="none" 
	d="
M152.047928,155.048569 
	C151.037872,153.868423 150.227753,152.388245 148.983704,151.559204 
	C143.058838,147.610764 136.855881,144.064682 131.057419,139.945358 
	C124.487045,135.277634 119.988098,129.061996 119.008553,120.361717 
	C127.099022,131.184616 139.094177,134.370148 151.872620,136.097382 
	C161.567993,137.407913 171.126831,139.281082 180.101532,145.086365 
	C178.317535,147.032806 176.806595,148.681305 174.716919,150.625183 
	C166.317520,149.849701 158.362106,148.057770 152.047928,155.048569 
z"/>
<path fill="#FDBD1D" opacity="1.000000" stroke="none" 
	d="
M128.947342,15.873406 
	C133.800354,13.937714 138.497116,11.148346 143.535629,10.226238 
	C158.711243,7.448915 171.551086,22.973387 163.256378,38.648453 
	C161.003403,37.433464 159.216095,36.301723 157.414200,35.193710 
	C148.754456,29.868641 140.061111,24.596933 131.465302,19.170675 
	C130.369019,18.478634 129.774384,16.991953 128.947342,15.873406 
z"/>
<path fill="#FB6E1E" opacity="1.000000" stroke="none" 
	d="
M87.981483,163.030228 
	C85.933197,162.677261 83.884911,162.324280 81.394821,161.677460 
	C80.300949,161.240524 79.648880,161.097473 78.996811,160.954422 
	C78.202919,160.708603 77.409019,160.462784 76.261322,159.748108 
	C73.269630,157.855728 70.631737,156.432220 67.993835,155.008713 
	C67.526047,154.689606 67.058266,154.370514 66.143532,153.723389 
	C53.168488,145.578537 42.690212,135.690430 34.984001,123.001205 
	C34.092129,119.523483 33.200256,116.045753 32.649261,112.523621 
	C33.075844,112.634186 33.161545,112.789169 33.330574,113.275421 
	C37.911461,120.093155 42.409027,126.579605 47.062912,133.361755 
	C52.439754,137.868561 57.660278,142.079681 63.083328,146.555115 
	C67.853470,149.236115 72.421089,151.652786 76.988708,154.069443 
	C84.924118,156.683624 92.859528,159.297806 101.545013,162.115921 
	C109.202911,163.101685 116.110741,163.883499 123.479935,164.740784 
	C142.060242,165.687851 159.256607,162.528397 175.023865,153.124863 
	C178.091522,151.385941 181.159195,149.647018 184.569397,148.168533 
	C184.180038,149.480255 183.670776,150.856064 182.682693,151.533813 
	C169.067261,160.872955 154.122711,166.859085 137.575363,167.922180 
	C120.823914,168.998383 104.213776,167.687744 87.981483,163.030228 
z"/>
<path fill="#FC5721" opacity="1.000000" stroke="none" 
	d="
M88.053757,163.388489 
	C104.213776,167.687744 120.823914,168.998383 137.575363,167.922180 
	C154.122711,166.859085 169.067261,160.872955 182.682693,151.533813 
	C183.670776,150.856064 184.180038,149.480255 184.905289,148.056763 
	C184.967392,147.352310 185.163422,147.134796 186.072296,147.020508 
	C187.371506,147.006378 188.085159,147.003723 188.798828,147.001068 
	C188.179199,148.953171 187.965698,151.175919 186.874298,152.813644 
	C179.592865,163.739929 169.505493,171.399841 157.472382,177.172943 
	C154.150589,176.150024 151.266083,174.558456 148.208862,174.086929 
	C129.788361,171.246048 111.322403,168.700714 92.891388,165.925461 
	C91.231224,165.675476 89.711159,164.495071 88.053757,163.388489 
z"/>
<path fill="#FDAD1A" opacity="1.000000" stroke="none" 
	d="
M128.569153,15.915240 
	C129.774384,16.991953 130.369019,18.478634 131.465302,19.170675 
	C140.061111,24.596933 148.754456,29.868641 157.414200,35.193710 
	C159.216095,36.301723 161.003403,37.433464 162.958954,38.876453 
	C161.286850,41.685204 159.453217,44.171772 157.306335,46.756996 
	C155.521271,45.663021 154.207443,44.154465 152.552933,43.327168 
	C137.853668,35.977108 123.094147,28.747606 108.156433,21.193165 
	C114.703972,19.254885 121.447464,17.605978 128.569153,15.915240 
z"/>
<path fill="#DB372D" opacity="1.000000" stroke="none" 
	d="
M114.953346,104.646980 
	C99.629288,119.155739 100.750687,135.975967 116.531464,149.218246 
	C119.929588,152.069748 123.847656,154.301636 127.684372,157.250977 
	C126.223953,159.810547 124.605377,161.938080 122.878456,163.733612 
	C119.823143,162.058243 116.876183,160.714905 113.929214,159.371567 
	C109.825996,154.026459 105.449692,148.866577 101.673546,143.299606 
	C92.368988,129.582397 94.548836,117.513054 107.762558,107.545059 
	C110.001938,105.855736 112.159676,104.058189 114.652161,102.158997 
	C114.979004,102.763695 115.008827,103.520050 114.953346,104.646980 
z"/>
<path fill="#F4E8E5" opacity="1.000000" stroke="none" 
	d="
M122.986801,164.065613 
	C124.605377,161.938080 126.223953,159.810547 128.014084,157.391556 
	C135.018829,154.465012 141.812469,153.466064 148.714569,157.061600 
	C149.351273,157.393280 150.785141,156.194794 151.948395,155.377686 
	C158.362106,148.057770 166.317520,149.849701 174.555176,150.931000 
	C174.983490,151.426620 174.994797,151.911804 175.014984,152.760925 
	C159.256607,162.528397 142.060242,165.687851 123.478714,164.590530 
	C123.016136,164.364792 122.986794,164.065613 122.986801,164.065613 
z"/>
<path fill="#FC6F1B" opacity="1.000000" stroke="none" 
	d="
M200.909424,111.637039 
	C190.159073,108.381584 179.301926,105.061134 168.729523,100.999466 
	C164.015823,99.188560 159.835861,95.948402 155.503113,93.215111 
	C154.477890,92.568367 153.812973,91.350487 152.928162,90.021324 
	C153.298599,89.384888 153.723160,89.122475 154.813187,88.901100 
	C159.343994,90.306030 163.208450,91.672501 167.074905,93.033287 
	C177.433334,96.678909 187.792633,100.322121 198.151581,103.966278 
	C199.073898,106.400940 199.996231,108.835602 200.909424,111.637039 
z"/>
<path fill="#FD9518" opacity="1.000000" stroke="none" 
	d="
M198.108292,103.596863 
	C187.792633,100.322121 177.433334,96.678909 167.074905,93.033287 
	C163.208450,91.672501 159.343994,90.306030 155.072266,88.884430 
	C157.718552,87.852898 160.771194,86.879082 164.636414,85.917267 
	C166.592514,86.105690 167.800598,86.102570 168.869415,86.486847 
	C177.587296,89.621277 186.279129,92.828064 194.978897,96.012840 
	C196.007599,98.417717 197.036301,100.822586 198.108292,103.596863 
z"/>
<path fill="#F9432E" opacity="1.000000" stroke="none" 
	d="
M153.721039,108.471024 
	C154.744690,109.421021 155.900101,110.723206 157.022873,112.052971 
	C158.927704,114.309021 160.604843,116.802979 162.741364,118.809738 
	C171.190277,126.745544 180.271225,123.100990 189.198807,119.863785 
	C192.935516,118.508827 196.505951,116.695358 200.505463,115.047577 
	C199.006287,116.928085 197.500015,119.711815 195.239441,120.621880 
	C186.629532,124.088104 177.811111,127.054276 169.000778,129.998291 
	C163.665680,131.781067 161.013214,130.297348 159.151840,124.880180 
	C157.321198,119.552406 155.604721,114.185402 153.721039,108.471024 
z"/>
<path fill="#FDAE1E" opacity="1.000000" stroke="none" 
	d="
M194.944702,95.636375 
	C186.279129,92.828064 177.587296,89.621277 168.869415,86.486847 
	C167.800598,86.102570 166.592514,86.105690 165.005432,85.878708 
	C170.231995,83.551003 175.850357,81.131882 181.588425,79.041313 
	C186.239975,77.346596 189.164398,78.817482 190.923706,83.502647 
	C192.377731,87.374771 193.590729,91.337387 194.944702,95.636375 
z"/>
<path fill="#FB6E1E" opacity="1.000000" stroke="none" 
	d="
M188.726028,146.697784 
	C188.085159,147.003723 187.371506,147.006378 186.300400,146.998749 
	C186.846390,146.790497 187.749802,146.592499 188.726028,146.697784 
z"/>
<path fill="#FC5721" opacity="1.000000" stroke="none" 
	d="
M68.040909,155.337158 
	C70.631737,156.432220 73.269630,157.855728 75.971840,159.617691 
	C75.862450,159.967239 75.688751,159.978348 75.254059,159.998886 
	C74.208321,159.689346 73.423576,159.370392 72.320366,159.025406 
	C70.697258,157.888123 69.392616,156.776871 68.040909,155.337158 
z"/>
<path fill="#C1BEBE" opacity="1.000000" stroke="none" 
	d="
M126.891655,66.648865 
	C128.471680,65.891296 129.801590,65.352654 131.487396,64.786812 
	C127.907104,68.162254 124.486023,72.704102 119.940598,74.759453 
	C104.737816,81.633850 88.862442,87.049263 73.802963,94.199364 
	C66.894295,97.479530 61.285748,103.497986 54.697006,108.610512 
	C52.239849,107.913147 50.173302,106.879936 47.945847,105.553879 
	C45.684334,101.952332 43.583733,98.643631 41.483135,95.334930 
	C49.809853,93.415329 58.136570,91.495735 66.742287,89.335472 
	C80.950958,84.618347 94.880623,80.141899 109.067642,75.403122 
	C111.623161,74.053177 113.921349,72.965553 116.534851,71.677689 
	C120.113968,69.940903 123.377754,68.404350 126.891655,66.648865 
z"/>
<path fill="#5D1A28" opacity="1.000000" stroke="none" 
	d="
M41.113831,95.296570 
	C43.583733,98.643631 45.684334,101.952332 47.740913,105.843224 
	C42.880341,108.598328 38.063797,110.771233 33.247250,112.944145 
	C33.161545,112.789169 33.075844,112.634186 32.868855,112.242386 
	C31.469114,108.080254 30.229307,104.141808 28.900349,100.233665 
	C27.778032,96.933205 29.414188,96.132118 32.315849,96.028610 
	C35.130985,95.928192 37.935402,95.527199 41.113831,95.296570 
z"/>
<path fill="#FC5721" opacity="1.000000" stroke="none" 
	d="
M34.738083,123.206238 
	C42.690212,135.690430 53.168488,145.578537 65.846283,153.699570 
	C61.336720,151.339020 56.281666,149.177841 52.106964,145.896591 
	C45.084091,140.376678 38.435787,134.296280 34.896790,125.708847 
	C34.607407,125.006660 34.619923,124.180054 34.738083,123.206238 
z"/>
<path fill="#B12330" opacity="1.000000" stroke="none" 
	d="
M76.995804,153.594696 
	C72.421089,151.652786 67.853470,149.236115 63.231594,146.197021 
	C67.812096,136.981735 72.259598,128.280533 77.147018,119.833862 
	C80.441719,114.139801 84.357361,108.805016 88.397141,103.207932 
	C90.170639,102.941299 91.542229,102.776245 92.913826,102.611191 
	C90.912590,106.147820 89.202248,109.891563 86.858025,113.183990 
	C78.278214,125.234200 75.736183,138.685776 76.995804,153.594696 
z"/>
<path fill="#F3EAE8" opacity="1.000000" stroke="none" 
	d="
M93.185516,102.413208 
	C91.542229,102.776245 90.170639,102.941299 87.995872,103.138168 
	C84.755493,102.554321 82.318283,101.938667 79.881073,101.323013 
	C86.354095,98.504227 92.752754,95.491364 99.338875,92.967735 
	C101.775032,92.034248 104.652000,92.251190 107.706558,91.987694 
	C106.024216,93.552521 103.998367,95.123817 101.893623,96.581169 
	C99.113838,98.505928 96.272232,100.341393 93.185516,102.413208 
z"/>
<path fill="#F4E2DC" opacity="1.000000" stroke="none" 
	d="
M122.878448,163.733612 
	C122.986794,164.065613 123.016136,164.364792 123.017349,164.515045 
	C116.110741,163.883499 109.202911,163.101685 101.918892,162.135117 
	C105.400848,161.132477 109.259003,160.314560 113.523178,159.434113 
	C116.876183,160.714905 119.823143,162.058243 122.878448,163.733612 
z"/>
<path fill="#9C1E2E" opacity="1.000000" stroke="none" 
	d="
M79.536301,101.199898 
	C82.318283,101.938667 84.755493,102.554321 87.593964,103.239746 
	C84.357361,108.805016 80.441719,114.139801 77.147018,119.833862 
	C72.259598,128.280533 67.812096,136.981735 63.029068,145.932709 
	C57.660278,142.079681 52.439754,137.868561 47.348572,133.157379 
	C49.435051,129.198166 51.507164,125.797943 53.318657,122.264114 
	C55.336788,118.327179 57.117825,114.268700 59.002068,110.263123 
	C66.917496,110.436142 73.680923,108.623741 76.518684,99.811050 
	C77.493637,100.272743 78.342583,100.674759 79.536301,101.199898 
z"/>
<path fill="#83192C" opacity="1.000000" stroke="none" 
	d="
M58.657951,110.170120 
	C57.117825,114.268700 55.336788,118.327179 53.318657,122.264114 
	C51.507164,125.797943 49.435051,129.198166 47.192253,132.861694 
	C42.409027,126.579605 37.911461,120.093155 33.330574,113.275421 
	C38.063797,110.771233 42.880341,108.598328 47.901821,106.136063 
	C50.173302,106.879936 52.239849,107.913147 54.658627,108.951393 
	C56.111847,109.329994 57.212837,109.703560 58.657951,110.170120 
z"/>
<path fill="#C1BEBE" opacity="1.000000" stroke="none" 
	d="
M132.077744,64.805450 
	C132.034332,64.576370 132.259140,64.316650 132.753723,64.015907 
	C132.797668,64.241531 132.571823,64.508171 132.077744,64.805450 
z"/>
<path fill="#FC5721" opacity="1.000000" stroke="none" 
	d="
M79.161865,161.210785 
	C79.648880,161.097473 80.300949,161.240524 80.995392,161.669617 
	C80.467476,161.792801 79.897194,161.629974 79.161865,161.210785 
z"/>
</svg>